<svg width="38" height="38" viewBox="0 0 38 38" fill="none" xmlns="http://www.w3.org/2000/svg">
<path d="M3.16669 19.3227C3.16669 15.6994 3.16669 13.8877 3.98875 12.3858C4.81082 10.884 6.31269 9.95189 9.3164 8.08771L12.4831 6.12238C15.6582 4.1518 17.2458 3.1665 19 3.1665C20.7542 3.1665 22.3418 4.1518 25.517 6.12238L28.6837 8.08769C31.6874 9.95189 33.1892 10.884 34.0113 12.3858C34.8334 13.8877 34.8334 15.6994 34.8334 19.3227V21.7311C34.8334 27.9074 34.8334 30.9956 32.9783 32.9143C31.1234 34.8332 28.1378 34.8332 22.1667 34.8332H15.8334C9.86222 34.8332 6.87667 34.8332 5.02167 32.9143C3.16669 30.9956 3.16669 27.9074 3.16669 21.7311V19.3227Z" stroke="#171717" stroke-width="3"/>
<path d="M14.25 25.3335C15.5964 26.3315 17.234 26.9168 19 26.9168C20.7661 26.9168 22.4035 26.3315 23.75 25.3335" stroke="#171717" stroke-width="3" stroke-linecap="round"/>
</svg>
