<svg width="40" height="40" viewBox="0 0 40 40" fill="none" xmlns="http://www.w3.org/2000/svg">
<path fill-rule="evenodd" clip-rule="evenodd" d="M4.19865 13.0381C3.33331 14.619 3.33331 16.526 3.33331 20.34V22.8752C3.33331 29.3765 3.33331 32.6273 5.28593 34.647C7.23856 36.6668 10.3812 36.6668 16.6666 36.6668H23.3333C29.6186 36.6668 32.7615 36.6668 34.714 34.647C36.6666 32.6273 36.6666 29.3765 36.6666 22.8752V20.34C36.6666 16.526 36.6666 14.619 35.8013 13.0381C34.936 11.4572 33.3551 10.476 30.1933 8.5137L26.86 6.44495C23.5176 4.37065 21.8465 3.3335 20 3.3335C18.1535 3.3335 16.4823 4.37065 13.14 6.44495L9.8067 8.51371C6.6449 10.476 5.06398 11.4572 4.19865 13.0381ZM15.7443 25.6627C15.1897 25.2515 14.4069 25.3678 13.9958 25.9225C13.5847 26.4772 13.701 27.26 14.2556 27.671C15.8763 28.8723 17.8583 29.5835 20 29.5835C22.1416 29.5835 24.1236 28.8723 25.7443 27.671C26.299 27.26 26.4153 26.4772 26.0041 25.9225C25.5931 25.3678 24.8103 25.2515 24.2556 25.6627C23.0416 26.5623 21.5765 27.0835 20 27.0835C18.4235 27.0835 16.9583 26.5623 15.7443 25.6627Z" fill="#171717"/>
</svg>
