<svg width="32" height="32" viewBox="0 0 36 36" fill="none" xmlns="http://www.w3.org/2000/svg">
<g clip-path="url(#clip0_2048_3435)">
<path fill-rule="evenodd" clip-rule="evenodd" d="M33.4286 10.2857C33.4286 11.7051 32.2766 12.8571 30.8571 12.8571H25.7143C24.2949 12.8571 23.1429 11.7051 23.1429 10.2857V5.14286C23.1429 3.72343 24.2949 2.57143 25.7143 2.57143H30.8571C32.2766 2.57143 33.4286 3.72343 33.4286 5.14286V10.2857ZM30.8571 0H25.7143C22.8741 0 20.5714 2.30271 20.5714 5.14286V10.2857C20.5714 13.1259 22.8741 15.4286 25.7143 15.4286H30.8571C33.6973 15.4286 36 13.1259 36 10.2857V5.14286C36 2.30271 33.6973 0 30.8571 0ZM33.4286 30.8571C33.4286 32.2766 32.2766 33.4286 30.8571 33.4286H25.7143C24.2949 33.4286 23.1429 32.2766 23.1429 30.8571V25.7143C23.1429 24.2949 24.2949 23.1429 25.7143 23.1429H30.8571C32.2766 23.1429 33.4286 24.2949 33.4286 25.7143V30.8571ZM30.8571 20.5714H25.7143C22.8741 20.5714 20.5714 22.8741 20.5714 25.7143V30.8571C20.5714 33.6973 22.8741 36 25.7143 36H30.8571C33.6973 36 36 33.6973 36 30.8571V25.7143C36 22.8741 33.6973 20.5714 30.8571 20.5714ZM12.8571 10.2857C12.8571 11.7051 11.7051 12.8571 10.2857 12.8571H5.14286C3.72343 12.8571 2.57143 11.7051 2.57143 10.2857V5.14286C2.57143 3.72343 3.72343 2.57143 5.14286 2.57143H10.2857C11.7051 2.57143 12.8571 3.72343 12.8571 5.14286V10.2857ZM10.2857 0H5.14286C2.30271 0 0 2.30271 0 5.14286V10.2857C0 13.1259 2.30271 15.4286 5.14286 15.4286H10.2857C13.1259 15.4286 15.4286 13.1259 15.4286 10.2857V5.14286C15.4286 2.30271 13.1259 0 10.2857 0ZM12.8571 30.8571C12.8571 32.2766 11.7051 33.4286 10.2857 33.4286H5.14286C3.72343 33.4286 2.57143 32.2766 2.57143 30.8571V25.7143C2.57143 24.2949 3.72343 23.1429 5.14286 23.1429H10.2857C11.7051 23.1429 12.8571 24.2949 12.8571 25.7143V30.8571ZM10.2857 20.5714H5.14286C2.30271 20.5714 0 22.8741 0 25.7143V30.8571C0 33.6973 2.30271 36 5.14286 36H10.2857C13.1259 36 15.4286 33.6973 15.4286 30.8571V25.7143C15.4286 22.8741 13.1259 20.5714 10.2857 20.5714Z" fill="black"/>
</g>
<defs>
<clipPath id="clip0_2048_3435">
<rect width="36" height="36" fill="white"/>
</clipPath>
</defs>
</svg>
