<svg width="32" height="32" viewBox="0 0 36 36" fill="none" xmlns="http://www.w3.org/2000/svg">
<path fill-rule="evenodd" clip-rule="evenodd" d="M30.8571 0H25.7143C22.8741 0 20.5714 2.30271 20.5714 5.14286V10.2857C20.5714 13.1259 22.8741 15.4286 25.7143 15.4286H30.8571C33.6973 15.4286 36 13.1259 36 10.2857V5.14286C36 2.30271 33.6973 0 30.8571 0ZM30.8571 20.5714H25.7143C22.8741 20.5714 20.5714 22.8741 20.5714 25.7143V30.8571C20.5714 33.6973 22.8741 36 25.7143 36H30.8571C33.6973 36 36 33.6973 36 30.8571V25.7143C36 22.8741 33.6973 20.5714 30.8571 20.5714ZM10.2857 20.5714H5.14286C2.30271 20.5714 0 22.8741 0 25.7143V30.8571C0 33.6973 2.30271 36 5.14286 36H10.2857C13.1259 36 15.4286 33.6973 15.4286 30.8571V25.7143C15.4286 22.8741 13.1259 20.5714 10.2857 20.5714ZM10.2857 0H5.14286C2.30271 0 0 2.30271 0 5.14286V10.2857C0 13.1259 2.30271 15.4286 5.14286 15.4286H10.2857C13.1259 15.4286 15.4286 13.1259 15.4286 10.2857V5.14286C15.4286 2.30271 13.1259 0 10.2857 0Z" fill="black"/>
</svg>
